<?xml version="1.0" encoding="UTF-8" standalone="no"?>
<!DOCTYPE svg PUBLIC "-//W3C//DTD SVG 1.1//EN" "http://www.w3.org/Graphics/SVG/1.1/DTD/svg11.dtd">
<!-- Created with Vectornator (http://vectornator.io/) -->
<svg height="100%" stroke-miterlimit="10" style="fill-rule:nonzero;clip-rule:evenodd;stroke-linecap:round;stroke-linejoin:round;" version="1.1" viewBox="0 0 2048 228" width="100%" xml:space="preserve" xmlns="http://www.w3.org/2000/svg" xmlns:vectornator="http://vectornator.io" xmlns:xlink="http://www.w3.org/1999/xlink">
<defs>
<linearGradient gradientTransform="matrix(1.01159 0 0 1.00638 -23.6451 -0.727113)" gradientUnits="userSpaceOnUse" id="LinearGradient" x1="1051.87" x2="2040" y1="113.369" y2="114">
<stop offset="0" stop-color="#000000"/>
<stop offset="1" stop-color="#000000" stop-opacity="0"/>
</linearGradient>
</defs>
<g id="Layer-1" vectornator:layerName="Layer 1">
<path d="M1012.5 3.42659e-15L7.75491e-14 0L7.42739e-14 228L1012.5 228" fill="#000000" fill-rule="nonzero" opacity="1" stroke="none"/>
<path d="M1006.1 0L1006.1 8L1014.15 8L1029.96 8L2039.95 8L2039.82 127.375L1946.19 220L1029.96 220L1014.15 220L1006.1 220L1006.1 228L1949.52 228L2047.87 130.688L2048 0L1006.1 0Z" fill="#000000" fill-rule="nonzero" opacity="1" stroke="none"/>
<path d="M1000.59 7.32391L1008.68 7.32391L1024.58 7.32391L2040 7.32391L2039.87 127.46L1945.73 220.676L1024.58 220.676L1008.68 220.676L1000.59 220.676L1000.59 7.32391Z" fill="url(#LinearGradient)" fill-rule="nonzero" opacity="1" stroke="none"/>
</g>
</svg>
