<?xml version="1.0" encoding="UTF-8" standalone="no"?>
<!DOCTYPE svg PUBLIC "-//W3C//DTD SVG 1.1//EN" "http://www.w3.org/Graphics/SVG/1.1/DTD/svg11.dtd">
<!-- Created with Vectornator (http://vectornator.io/) -->
<svg height="100%" stroke-miterlimit="10" style="fill-rule:nonzero;clip-rule:evenodd;stroke-linecap:round;stroke-linejoin:round;" version="1.1" viewBox="0 0 2048 228" width="100%" xml:space="preserve" xmlns="http://www.w3.org/2000/svg" xmlns:vectornator="http://vectornator.io" xmlns:xlink="http://www.w3.org/1999/xlink">
<defs/>
<g id="Layer-1" vectornator:layerName="Layer 1">
<path d="M7.75491e-14 0L7.42739e-14 228L1950.12 228L2047.87 130.701L2048 7.10543e-15L7.75491e-14 0ZM8.00332 7.98095L2040 7.98095L2039.87 127.396L1946.8 220.019L8.00332 220.019C8.00332 204.957 8.00332 23.0427 8.00332 7.98095Z" fill="#000000" fill-rule="nonzero" opacity="1" stroke="none"/>
<path d="M1911.12 212.312L1943.32 212.312L1976.8 179.109L1943.32 145.399L1910.86 145.399L1944.35 179.109L1942.88 180.641L1911.12 212.312Z" fill="#000000" fill-rule="nonzero" opacity="1" stroke="none"/>
<path d="M1855.72 212.312L1887.92 212.312L1921.4 179.109L1887.92 145.399L1855.47 145.399L1888.95 179.109L1887.49 180.641L1855.72 212.312Z" fill="#000000" fill-rule="nonzero" opacity="1" stroke="none"/>
</g>
</svg>
