<?xml version="1.0" encoding="UTF-8" standalone="no"?>
<!DOCTYPE svg PUBLIC "-//W3C//DTD SVG 1.1//EN" "http://www.w3.org/Graphics/SVG/1.1/DTD/svg11.dtd">
<!-- Created with Vectornator (http://vectornator.io/) -->
<svg height="100%" stroke-miterlimit="10" style="fill-rule:nonzero;clip-rule:evenodd;stroke-linecap:round;stroke-linejoin:round;" version="1.1" viewBox="0 0 2048 228" width="100%" xml:space="preserve" xmlns="http://www.w3.org/2000/svg" xmlns:vectornator="http://vectornator.io" xmlns:xlink="http://www.w3.org/1999/xlink">
<defs>
<linearGradient gradientTransform="matrix(1 0 0 1 0 0)" gradientUnits="userSpaceOnUse" id="LinearGradient" x1="1012.5" x2="2048" y1="114" y2="114">
<stop offset="0" stop-color="#000000" stop-opacity="0"/>
<stop offset="1" stop-color="#000000"/>
</linearGradient>
<linearGradient gradientTransform="matrix(1 0 0 1 0 0)" gradientUnits="userSpaceOnUse" id="LinearGradient_2" x1="1012.5" x2="2048" y1="114" y2="114">
<stop offset="0" stop-color="#000000" stop-opacity="0"/>
<stop offset="1" stop-color="#000000"/>
</linearGradient>
<filter color-interpolation-filters="sRGB" filterUnits="userSpaceOnUse" height="263" id="Filter" width="1070.5" x="995" y="-17.5">
<feGaussianBlur in="SourceGraphic" result="Blur" stdDeviation="7"/>
</filter>
<linearGradient gradientTransform="matrix(1 0 0 1 0 0)" gradientUnits="userSpaceOnUse" id="LinearGradient_3" x1="1012.5" x2="2048" y1="114" y2="114">
<stop offset="0" stop-color="#000000" stop-opacity="0"/>
<stop offset="1" stop-color="#000000"/>
</linearGradient>
<filter color-interpolation-filters="sRGB" filterUnits="userSpaceOnUse" height="263" id="Filter_2" width="1070.5" x="995" y="-17.5">
<feGaussianBlur in="SourceGraphic" result="Blur" stdDeviation="7"/>
</filter>
</defs>
<g id="Layer-1" vectornator:layerName="Layer 1">
<path d="M1012.5 0L1012.5 8L1020.5 8L1036.22 8L2040 8L2039.88 127.375L1946.81 220L1036.22 220L1020.5 220L1012.5 220L1012.5 228L1950.12 228L2047.88 130.688L2048 0L1012.5 0Z" fill="url(#LinearGradient)" fill-rule="nonzero" opacity="1" stroke="none"/>
<g opacity="1">
<g opacity="1">
<clipPath id="ClipPath">
<path d="M1012.5 8L1020.5 8L1036.22 8L2040 8L2039.88 127.375L1946.81 220L1036.22 220L1020.5 220L1012.5 220L1012.5 8Z"/>
</clipPath>
<g clip-path="url(#ClipPath)">
<path d="M1012.5 0L1012.5 8L1020.5 8L1036.22 8L2040 8L2039.88 127.375L1946.81 220L1036.22 220L1020.5 220L1012.5 220L1012.5 228L1950.12 228L2047.88 130.688L2048 0L1012.5 0Z" fill="url(#LinearGradient_2)" fill-rule="nonzero" filter="url(#Filter)" opacity="1" stroke="none" vectornator:blur="14"/>
</g>
</g>
<g opacity="1">
<clipPath id="ClipPath_2">
<path d="M1012.5 8L1020.5 8L1036.22 8L2040 8L2039.88 127.375L1946.81 220L1036.22 220L1020.5 220L1012.5 220L1012.5 8Z"/>
</clipPath>
<g clip-path="url(#ClipPath_2)">
<path d="M1012.5 0L1012.5 8L1020.5 8L1036.22 8L2040 8L2039.88 127.375L1946.81 220L1036.22 220L1020.5 220L1012.5 220L1012.5 228L1950.12 228L2047.88 130.688L2048 0L1012.5 0Z" fill="url(#LinearGradient_3)" fill-rule="nonzero" filter="url(#Filter_2)" opacity="1" stroke="none" vectornator:blur="14"/>
</g>
</g>
</g>
</g>
</svg>
