<?xml version="1.0" encoding="UTF-8" standalone="no"?>
<!DOCTYPE svg PUBLIC "-//W3C//DTD SVG 1.1//EN" "http://www.w3.org/Graphics/SVG/1.1/DTD/svg11.dtd">
<!-- Created with Vectornator (http://vectornator.io/) -->
<svg height="100%" stroke-miterlimit="10" style="fill-rule:nonzero;clip-rule:evenodd;stroke-linecap:round;stroke-linejoin:round;" version="1.1" viewBox="0 0 2048 282.567" width="100%" xml:space="preserve" xmlns="http://www.w3.org/2000/svg" xmlns:vectornator="http://vectornator.io" xmlns:xlink="http://www.w3.org/1999/xlink">
<defs/>
<clipPath id="ArtboardFrame">
<rect height="282.567" width="2048" x="0" y="0"/>
</clipPath>
<g clip-path="url(#ArtboardFrame)" id="Layer-1" vectornator:layerName="Layer 1">
<path d="M0 0L64 0L64 32.8995L56 41.0599L56 91.621L63.9624 99.9586L64 282L24 282L24 208.486L3.74763e-16 184.459L0 0Z" fill="#000000" fill-rule="nonzero" opacity="1" stroke="none"/>
<path d="M72 0L72 282L1950.16 282L2047.88 184.469L2048 0L72 0ZM1855.56 199.125L1888 199.125L1921.47 232.844L1888 266.031L1855.81 266.031L1887.56 234.375L1889 232.844L1855.56 199.125ZM1910.91 199.125L1943.38 199.125L1976.84 232.844L1943.38 266.031L1911.19 266.031L1942.94 234.375L1944.38 232.844L1910.91 199.125Z" fill="#000000" fill-rule="nonzero" opacity="1" stroke="none"/>
</g>
</svg>
