<?xml version="1.0" encoding="UTF-8" standalone="no"?>
<!DOCTYPE svg PUBLIC "-//W3C//DTD SVG 1.1//EN" "http://www.w3.org/Graphics/SVG/1.1/DTD/svg11.dtd">
<!-- Created with Vectornator (http://vectornator.io/) -->
<svg height="100%" stroke-miterlimit="10" style="fill-rule:nonzero;clip-rule:evenodd;stroke-linecap:round;stroke-linejoin:round;" version="1.1" viewBox="0 0 2048 2048" width="100%" xml:space="preserve" xmlns="http://www.w3.org/2000/svg" xmlns:vectornator="http://vectornator.io" xmlns:xlink="http://www.w3.org/1999/xlink">
<defs/>
<clipPath id="ArtboardFrame">
<rect height="2048" width="2048" x="0" y="0"/>
</clipPath>
<g clip-path="url(#ArtboardFrame)" id="Frame" vectornator:layerName="Frame">
<path d="M7.96875 0C3.55933 6.35783e-07 0 3.64649 0 8.15625L0 2039.84C6.35783e-07 2044.35 3.55933 2048 7.96875 2048L2040.03 2048C2044.44 2048 2048 2044.35 2048 2039.84L2048 8.15625C2048 3.64648 2044.44 0 2040.03 0L7.96875 0ZM778.518 247.261C778.306 232.026 778.082 214.522 778.156 213.625C778.156 213.625 778.3 212.026 778.344 211.656C778.442 210.824 778.574 209.958 778.719 209.031C779.064 206.812 779.52 204.437 780.125 201.906C781.667 195.454 783.972 188.595 787.156 181.469C795.579 162.621 809.03 144.368 828.188 128.062C876.294 87.117 953.069 64.0482 1063.34 63.6562C1071.28 63.628 1079.39 63.6992 1087.59 63.9062C1189.81 66.485 1261.12 89.4188 1305.84 128.656C1324.78 145.266 1337.82 163.87 1345.66 183.094C1348.62 190.354 1350.67 197.345 1351.97 203.906C1352.48 206.476 1352.87 208.904 1353.12 211.156C1353.23 212.096 1353.31 212.968 1353.38 213.812C1353.4 214.187 1353.5 215.812 1353.5 215.812C1353.53 216.548 1353.53 217.295 1353.53 218.031L1352.94 351.594C1359.46 359.524 1364.81 367.763 1368.62 377.031C1369.22 378.469 1369.78 379.93 1370.28 381.406C1372.21 387.052 1372.5 389.291 1372.88 394.5C1372.96 395.718 1373.01 396.966 1373.06 398.406C1373.14 400.576 1373.18 403.322 1373.22 406.656C1373.28 412.608 1373.29 420.533 1373.25 429.469C1373.17 447.573 1372.91 466.943 1372.56 478C1372.33 485.388 1370.39 492.639 1366.91 499.156C1362.9 506.648 1357.89 513.199 1352.09 518.75L1355.56 1339.25C1362.17 1342.07 1368.15 1346.3 1372.97 1351.84L1386.06 1366.88C1393.65 1375.6 1397.83 1386.75 1397.84 1398.31L1397.91 1467.09C1402.61 1474.7 1405.44 1483.59 1405.44 1493.19L1405.44 1662.5C1405.44 1671.91 1402.69 1680.62 1398.16 1688.12L1398.28 1810.09C1398.28 1814.31 1397.72 1818.52 1396.62 1822.59C1396.52 1822.99 1395.27 1827.58 1394.78 1829.28C1393.38 1834.19 1391.9 1839.09 1390.41 1843.78C1389.54 1846.51 1388.69 1849.1 1387.84 1851.53C1384.16 1862.07 1381.34 1868.65 1376.12 1875.72C1372.01 1881.3 1366.04 1887.56 1356.56 1896.94C1356.1 1897.39 1355.66 1897.85 1355.19 1898.31C1351.29 1902.15 1347.13 1906.13 1343 1910.06C1341.56 1911.44 1337.74 1915.06 1337.44 1915.34C1328 1924.19 1315.42 1928.86 1302.5 1928.28L1297.91 1928.09C1286.27 1936.36 1272.35 1944.35 1255.91 1951.66C1212.41 1970.99 1157.97 1982.83 1091.91 1984.16C1022.48 1985.55 966.74 1979.45 923.25 1967.94C905.632 1963.27 891.998 1958.2 881.281 1953.25L867.281 1954C854.479 1954.68 841.923 1950.19 832.438 1941.56L743.5 1860.69C733.442 1851.54 727.753 1838.56 727.812 1824.97L729.344 1473.31C729.435 1452.52 742.891 1434.16 762.688 1427.81L779.688 1422.38C779.352 1385.5 779.117 1330.42 779 1236.44C778.954 1199.67 778.918 1116.64 778.906 1070.06L735.406 1069.53C725.621 1069.41 716.127 1066.3 708.156 1060.62C706.275 1059.28 703.95 1057.45 701.312 1055.12C697.268 1051.56 693.27 1047.49 689.469 1042.84C687.093 1039.94 684.852 1036.89 682.781 1033.66C680.617 1030.28 678.664 1026.75 676.844 1023.06C674.453 1018.23 672.394 1013.31 670.594 1008.44C669.974 1006.76 669.422 1005.2 668.938 1003.75C668.934 1003.74 668.941 1003.73 668.938 1003.72C667.129 998.663 666.024 993.18 666.031 987.219L666.062 965.719C662.278 961.547 659.082 956.758 656.812 951.344L648.906 932.5C646.435 926.606 645.011 920.125 644.969 913.219L642.562 523.469C642.523 516.846 643.776 510.547 646.031 504.75L650.562 493.156L656.094 467.469C657.365 461.565 659.366 456.912 661.875 452.656C662.573 451.472 663.315 450.56 664.031 449.531L666.594 445.375L666.656 390.562C666.673 376.868 672.543 363.814 682.781 354.719L776.062 271.875C776.933 271.101 777.925 270.516 778.844 269.812C778.844 269.812 778.685 259.238 778.518 247.261" fill="#0f0f00" fill-rule="nonzero" opacity="1" stroke="none"/>
</g>
</svg>
