<?xml version="1.0" encoding="UTF-8" standalone="no"?>
<!DOCTYPE svg PUBLIC "-//W3C//DTD SVG 1.1//EN" "http://www.w3.org/Graphics/SVG/1.1/DTD/svg11.dtd">
<!-- Created with Vectornator (http://vectornator.io/) -->
<svg height="100%" stroke-miterlimit="10" style="fill-rule:nonzero;clip-rule:evenodd;stroke-linecap:round;stroke-linejoin:round;" version="1.1" viewBox="0 0 2048 2048" width="100%" xml:space="preserve" xmlns="http://www.w3.org/2000/svg" xmlns:vectornator="http://vectornator.io" xmlns:xlink="http://www.w3.org/1999/xlink">
<defs/>
<g id="LED" vectornator:layerName="LED">
<path d="M1256.16 1858.35C1255.25 1858.21 1254.3 1858.41 1253.5 1858.99C1253.43 1859.05 1253.26 1859.17 1253 1859.36C1252.54 1859.68 1251.97 1860.05 1251.32 1860.48C1249.44 1861.7 1247.18 1863.06 1244.57 1864.54C1237.07 1868.78 1228.19 1873.02 1217.98 1876.99C1211.47 1879.52 1204.64 1881.86 1197.46 1883.96C1181.69 1888.57 1167.73 1891.62 1155.77 1893.4C1151.6 1894.02 1147.98 1894.43 1144.94 1894.69C1143.88 1894.77 1142.98 1894.84 1142.22 1894.88C1141.78 1894.91 1141.51 1894.91 1141.38 1894.91C1139.4 1894.95 1137.84 1896.6 1137.88 1898.58C1137.93 1900.56 1139.54 1902.12 1141.52 1902.08C1142.24 1902.06 1143.58 1901.99 1145.53 1901.83C1148.73 1901.56 1152.52 1901.12 1156.84 1900.48C1169.12 1898.65 1183.36 1895.55 1199.44 1890.85C1206.83 1888.69 1213.88 1886.29 1220.58 1883.68C1231.12 1879.58 1240.31 1875.19 1248.1 1870.78C1250.84 1869.23 1253.24 1867.77 1255.24 1866.47C1256.46 1865.67 1257.28 1865.11 1257.73 1864.79C1259.32 1863.62 1259.68 1861.37 1258.51 1859.78C1257.93 1858.98 1257.07 1858.49 1256.16 1858.35Z" fill="#000000" fill-rule="nonzero" opacity="1" stroke="none"/>
</g>
</svg>
