<?xml version="1.0" encoding="UTF-8" standalone="no"?>
<!DOCTYPE svg PUBLIC "-//W3C//DTD SVG 1.1//EN" "http://www.w3.org/Graphics/SVG/1.1/DTD/svg11.dtd">
<!-- Created with Vectornator (http://vectornator.io/) -->
<svg height="100%" stroke-miterlimit="10" style="fill-rule:nonzero;clip-rule:evenodd;stroke-linecap:round;stroke-linejoin:round;" version="1.1" viewBox="0 0 2048 2048" width="100%" xml:space="preserve" xmlns="http://www.w3.org/2000/svg" xmlns:vectornator="http://vectornator.io" xmlns:xlink="http://www.w3.org/1999/xlink">
<defs/>
<g id="Bottle" vectornator:layerName="Bottle">
<path d="M1063.53 111.646C834.71 112.459 825.993 217.606 825.993 217.606L827.505 308.365L807.937 307.749L765.585 345.373L714.658 390.614L714.574 458.921L762.025 429.638C763.438 428.766 764.964 428.232 766.532 428.014C771.281 427.354 776.029 429.658 778.374 433.977C778.539 434.281 790.589 456.501 790.748 456.793C791.666 458.485 792.179 460.418 792.176 462.392L791.364 906.92C791.361 908.631 790.985 910.143 790.356 911.567L781.566 931.528C779.825 935.472 776.036 938.132 771.74 938.442L714.098 942.614L714.042 987.265C714.042 987.265 717.709 999.188 723.197 1007.76C728.685 1016.33 735.99 1021.53 735.99 1021.53L826.889 1022.62C826.889 1022.62 826.734 1445.82 828.121 1463.15L803.542 1465.14L777.338 1473.53L775.799 1825.18L864.738 1906.05L891.725 1904.62C891.725 1904.62 942.127 1939.17 1090.94 1936.17C1230.74 1933.36 1281.94 1879.32 1281.94 1879.32L1304.62 1880.33C1304.62 1880.33 1332.04 1854.61 1337.49 1847.24C1341.94 1841.2 1350.28 1810.14 1350.28 1810.14L1350.14 1668.77L1336.95 1668.77C1328.79 1668.77 1323.24 1660.77 1323.24 1651.75L1323.24 1503.96C1323.24 1494.95 1328.79 1486.92 1336.95 1486.92L1349.91 1486.92L1349.83 1398.37L1336.76 1383.33L1307.75 1382.91L1303.98 491.143C1303.98 491.143 1317.01 490.654 1324.58 476.501C1325.27 454.49 1325.6 399.074 1324.86 396.912C1320.48 384.08 1304.84 370.653 1304.84 370.653L1305.54 217.802C1305.54 217.802 1301.38 117.322 1086.37 111.898C1078.53 111.7 1070.91 111.62 1063.53 111.646ZM1256.83 1853.93C1258.87 1854.24 1260.81 1855.32 1262.12 1857.12C1264.75 1860.71 1263.95 1865.77 1260.36 1868.4C1259.85 1868.77 1258.96 1869.41 1257.67 1870.25C1255.59 1871.6 1253.13 1873.07 1250.31 1874.67C1242.34 1879.18 1232.95 1883.68 1222.2 1887.86C1215.39 1890.51 1208.22 1892.94 1200.7 1895.13C1184.42 1899.89 1169.96 1903.05 1157.48 1904.9C1153.06 1905.56 1149.21 1906 1145.92 1906.28C1143.88 1906.45 1142.44 1906.54 1141.63 1906.56C1137.18 1906.65 1133.5 1903.11 1133.4 1898.66C1133.31 1894.21 1136.82 1890.53 1141.27 1890.43C1141.27 1890.43 1141.76 1890.42 1142 1890.4C1142.71 1890.37 1143.56 1890.29 1144.57 1890.21C1147.53 1889.96 1151.03 1889.55 1155.1 1888.95C1166.86 1887.2 1180.62 1884.2 1196.2 1879.65C1203.26 1877.59 1209.97 1875.31 1216.35 1872.82C1226.36 1868.93 1235.07 1864.78 1242.39 1860.64C1244.92 1859.21 1247.08 1857.9 1248.88 1856.73C1249.5 1856.33 1250.02 1855.96 1250.45 1855.66C1250.68 1855.5 1250.8 1855.41 1250.84 1855.38C1252.64 1854.07 1254.79 1853.61 1256.83 1853.93Z" fill="#000000" fill-rule="nonzero" opacity="1" stroke="none"/>
</g>
</svg>
